<svg width="327" height="706" viewBox="0 0 327 706" fill="none" xmlns="http://www.w3.org/2000/svg">
<g filter="url(#filter0_d)">
<path d="M169.122 81.7758C173.388 79.372 178.6 79.372 182.866 81.7758L205.561 94.5625C209.964 97.0435 212.688 101.705 212.688 106.76V131.705C212.688 136.759 209.964 141.421 205.561 143.902L182.866 156.689C178.6 159.093 173.388 159.093 169.122 156.689L146.428 143.902C142.024 141.421 139.3 136.759 139.3 131.705V106.76C139.3 101.705 142.024 97.0435 146.428 94.5625L169.122 81.7758Z" fill="#1F93FF" stroke="white" stroke-width="2"/>
<path d="M169.122 235.287C173.388 232.883 178.6 232.883 182.866 235.287L205.561 248.074C209.964 250.555 212.688 255.217 212.688 260.271V285.216C212.688 290.271 209.964 294.932 205.561 297.414L182.866 310.2C178.6 312.604 173.388 312.604 169.122 310.2L146.428 297.414C142.024 294.932 139.3 290.271 139.3 285.216V260.271C139.3 255.217 142.024 250.555 146.428 248.074L169.122 235.287Z" fill="#9F9F9E" stroke="white" stroke-width="2"/>
<path d="M125.172 312.302C129.462 309.864 134.719 309.864 139.008 312.302L161.702 325.201C166.08 327.689 168.784 332.337 168.784 337.372V362.765C168.784 367.801 166.08 372.448 161.702 374.937L139.008 387.835C134.719 390.274 129.462 390.274 125.172 387.835L102.478 374.937C98.1005 372.448 95.3962 367.801 95.3962 362.765V337.372C95.3962 332.337 98.1005 327.689 102.478 325.201L125.172 312.302Z" fill="#F07407" stroke="white" stroke-width="2"/>
<path d="M36.6075 312.302C40.8972 309.864 46.1536 309.864 50.4433 312.302L73.1374 325.201C77.5152 327.689 80.2195 332.337 80.2195 337.372V362.765C80.2195 367.801 77.5152 372.448 73.1374 374.937L50.4433 387.835C46.1536 390.274 40.8972 390.274 36.6075 387.835L13.9134 374.937C9.53556 372.448 6.8313 367.801 6.8313 362.765V337.372C6.8313 332.337 9.53556 327.689 13.9134 325.201L36.6075 312.302Z" fill="#F07407" stroke="white" stroke-width="2"/>
<path d="M169.122 388.995C173.388 386.592 178.6 386.592 182.866 388.995L205.561 401.782C209.964 404.263 212.688 408.925 212.688 413.979V438.924C212.688 443.979 209.964 448.641 205.561 451.122L182.866 463.908C178.6 466.312 173.388 466.312 169.122 463.908L146.428 451.122C142.024 448.641 139.3 443.979 139.3 438.924V413.979C139.3 408.925 142.024 404.263 146.428 401.782L169.122 388.995Z" fill="#2CC29F" stroke="white" stroke-width="2"/>
<path d="M80.557 388.995C84.8233 386.592 90.0354 386.592 94.3017 388.995L116.996 401.782C121.399 404.263 124.123 408.925 124.123 413.979V438.924C124.123 443.979 121.399 448.641 116.996 451.122L94.3017 463.908C90.0354 466.312 84.8233 466.312 80.557 463.908L57.8629 451.122C53.4595 448.641 50.7352 443.979 50.7352 438.924V413.979C50.7352 408.925 53.4595 404.263 57.8629 401.782L80.557 388.995Z" fill="#AA028B" stroke="white" stroke-width="2"/>
<path d="M125.172 465.813C129.462 463.375 134.719 463.375 139.008 465.813L161.702 478.712C166.08 481.201 168.784 485.848 168.784 490.884V516.277C168.784 521.312 166.08 525.96 161.702 528.448L139.008 541.347C134.719 543.785 129.462 543.785 125.172 541.347L102.478 528.448C98.1005 525.96 95.3962 521.312 95.3962 516.277V490.884C95.3962 485.848 98.1005 481.201 102.478 478.712L125.172 465.813Z" fill="#AA028B" stroke="white" stroke-width="2"/>
<path d="M42.1986 465.813C46.4884 463.375 51.7448 463.375 56.0345 465.813L78.7286 478.712C83.1064 481.201 85.8107 485.848 85.8107 490.884V516.277C85.8107 521.312 83.1064 525.96 78.7286 528.448L56.0345 541.347C51.7448 543.785 46.4884 543.785 42.1986 541.347L19.5045 528.448C15.1267 525.96 12.4225 521.312 12.4225 516.277V490.884C12.4225 485.848 15.1267 481.201 19.5045 478.712L42.1986 465.813Z" fill="#1F93FF" stroke="white" stroke-width="2"/>
<path d="M169.122 542.507C173.388 540.103 178.6 540.103 182.866 542.507L205.561 555.293C209.964 557.774 212.688 562.436 212.688 567.491V592.436C212.688 597.49 209.964 602.152 205.561 604.633L182.866 617.42C178.6 619.824 173.388 619.824 169.122 617.42L146.428 604.633C142.024 602.152 139.3 597.49 139.3 592.436V567.491C139.3 562.436 142.024 557.774 146.428 555.293L169.122 542.507Z" fill="#AA028B" stroke="white" stroke-width="2"/>
<path d="M212.523 5.08226C216.813 2.64407 222.069 2.64407 226.359 5.08226L249.053 17.9811C253.431 20.4694 256.135 25.1169 256.135 30.1525V55.5457C256.135 60.5812 253.431 65.2288 249.053 67.717L226.359 80.6159C222.069 83.0541 216.813 83.0541 212.523 80.6159L189.829 67.717C185.451 65.2288 182.747 60.5812 182.747 55.5457V30.1525C182.747 25.1169 185.451 20.4694 189.829 17.9811L212.523 5.08226Z" fill="#1F93FF" stroke="white" stroke-width="2"/>
<path d="M345.037 81.7758C349.304 79.372 354.516 79.372 358.782 81.7758L381.476 94.5625C385.88 97.0435 388.604 101.705 388.604 106.76V131.705C388.604 136.759 385.88 141.421 381.476 143.902L358.782 156.689C354.516 159.093 349.304 159.093 345.037 156.689L322.343 143.902C317.94 141.421 315.216 136.759 315.216 131.705V106.76C315.216 101.705 317.94 97.0435 322.343 94.5625L345.037 81.7758Z" fill="#1F93FF" stroke="white" stroke-width="2"/>
<path d="M256.473 81.7758C260.739 79.372 265.951 79.372 270.217 81.7758L292.911 94.5625C297.315 97.0435 300.039 101.705 300.039 106.76V131.705C300.039 136.759 297.315 141.421 292.911 143.902L270.217 156.689C265.951 159.093 260.739 159.093 256.473 156.689L233.779 143.902C229.375 141.421 226.651 136.759 226.651 131.705V106.76C226.651 101.705 229.375 97.0435 233.779 94.5625L256.473 81.7758Z" fill="#DF3E6B" stroke="white" stroke-width="2"/>
<path d="M301.088 158.594C305.378 156.156 310.634 156.156 314.924 158.594L337.618 171.493C341.996 173.981 344.7 178.629 344.7 183.664V209.057C344.7 214.093 341.996 218.74 337.618 221.229L314.924 234.127C310.634 236.566 305.378 236.566 301.088 234.127L278.394 221.229C274.016 218.74 271.312 214.093 271.312 209.057V183.664C271.312 178.629 274.016 173.981 278.394 171.493L301.088 158.594Z" fill="#1F93FF" stroke="white" stroke-width="2"/>
<path d="M212.523 158.594C216.813 156.156 222.069 156.156 226.359 158.594L249.053 171.493C253.431 173.981 256.135 178.629 256.135 183.664V209.057C256.135 214.093 253.431 218.74 249.053 221.229L226.359 234.127C222.069 236.566 216.813 236.566 212.523 234.127L189.829 221.229C185.451 218.74 182.747 214.093 182.747 209.057V183.664C182.747 178.629 185.451 173.981 189.829 171.493L212.523 158.594Z" fill="#F07407" stroke="white" stroke-width="2"/>
<path d="M345.037 235.287C349.304 232.883 354.516 232.883 358.782 235.287L381.476 248.074C385.88 250.555 388.604 255.217 388.604 260.271V285.216C388.604 290.271 385.88 294.932 381.476 297.414L358.782 310.2C354.516 312.604 349.304 312.604 345.037 310.2L322.343 297.414C317.94 294.932 315.216 290.271 315.216 285.216V260.271C315.216 255.217 317.94 250.555 322.343 248.074L345.037 235.287Z" fill="#1F93FF" stroke="white" stroke-width="2"/>
<path d="M256.473 235.287C260.739 232.883 265.951 232.883 270.217 235.287L292.911 248.074C297.315 250.555 300.039 255.217 300.039 260.271V285.216C300.039 290.271 297.315 294.932 292.911 297.414L270.217 310.2C265.951 312.604 260.739 312.604 256.473 310.2L233.779 297.414C229.375 294.932 226.651 290.271 226.651 285.216V260.271C226.651 255.217 229.375 250.555 233.779 248.074L256.473 235.287Z" fill="#AA028B" stroke="white" stroke-width="2"/>
<path d="M301.088 312.302C305.378 309.864 310.634 309.864 314.924 312.302L337.618 325.201C341.996 327.689 344.7 332.337 344.7 337.372V362.765C344.7 367.801 341.996 372.448 337.618 374.937L314.924 387.835C310.634 390.274 305.378 390.274 301.088 387.835L278.394 374.937C274.016 372.448 271.312 367.801 271.312 362.765V337.372C271.312 332.337 274.016 327.689 278.394 325.201L301.088 312.302Z" fill="#9F9F9E" stroke="white" stroke-width="2"/>
<path d="M212.523 312.302C216.813 309.864 222.069 309.864 226.359 312.302L249.053 325.201C253.431 327.689 256.135 332.337 256.135 337.372V362.765C256.135 367.801 253.431 372.448 249.053 374.937L226.359 387.835C222.069 390.274 216.813 390.274 212.523 387.835L189.829 374.937C185.451 372.448 182.747 367.801 182.747 362.765V337.372C182.747 332.337 185.451 327.689 189.829 325.201L212.523 312.302Z" fill="#2CC29F" stroke="white" stroke-width="2"/>
<path d="M345.037 388.995C349.304 386.592 354.516 386.592 358.782 388.995L381.476 401.782C385.88 404.263 388.604 408.925 388.604 413.979V438.924C388.604 443.979 385.88 448.641 381.476 451.122L358.782 463.908C354.516 466.312 349.304 466.312 345.037 463.908L322.343 451.122C317.94 448.641 315.216 443.979 315.216 438.924V413.979C315.216 408.925 317.94 404.263 322.343 401.782L345.037 388.995Z" fill="#DF3E6B" stroke="white" stroke-width="2"/>
<path d="M256.473 388.995C260.739 386.592 265.951 386.592 270.217 388.995L292.911 401.782C297.315 404.263 300.039 408.925 300.039 413.979V438.924C300.039 443.979 297.315 448.641 292.911 451.122L270.217 463.908C265.951 466.312 260.739 466.312 256.473 463.908L233.779 451.122C229.375 448.641 226.651 443.979 226.651 438.924V413.979C226.651 408.925 229.375 404.263 233.779 401.782L256.473 388.995Z" fill="#E0A310" stroke="white" stroke-width="2"/>
<path d="M301.088 465.813C305.378 463.375 310.634 463.375 314.924 465.813L337.618 478.712C341.996 481.201 344.7 485.848 344.7 490.884V516.277C344.7 521.312 341.996 525.96 337.618 528.448L314.924 541.347C310.634 543.785 305.378 543.785 301.088 541.347L278.394 528.448C274.016 525.96 271.312 521.312 271.312 516.277V490.884C271.312 485.848 274.016 481.201 278.394 478.712L301.088 465.813Z" fill="#E0A310" stroke="white" stroke-width="2"/>
<path d="M212.523 465.813C216.813 463.375 222.069 463.375 226.359 465.813L249.053 478.712C253.431 481.201 256.135 485.848 256.135 490.884V516.277C256.135 521.312 253.431 525.96 249.053 528.448L226.359 541.347C222.069 543.785 216.813 543.785 212.523 541.347L189.829 528.448C185.451 525.96 182.747 521.312 182.747 516.277V490.884C182.747 485.848 185.451 481.201 189.829 478.712L212.523 465.813Z" fill="#AA028B" stroke="white" stroke-width="2"/>
<path d="M212.569 620.259C216.835 617.855 222.047 617.855 226.314 620.259L249.008 633.046C253.411 635.527 256.135 640.189 256.135 645.243V670.188C256.135 675.243 253.411 679.905 249.008 682.386L226.314 695.172C222.047 697.576 216.835 697.576 212.569 695.172L189.875 682.386C185.471 679.905 182.747 675.243 182.747 670.188V645.243C182.747 640.189 185.471 635.527 189.875 633.046L212.569 620.259Z" fill="#2CC29F" stroke="white" stroke-width="2"/>
<path d="M256.473 542.507C260.739 540.103 265.951 540.103 270.217 542.507L292.911 555.293C297.315 557.774 300.039 562.436 300.039 567.491V592.436C300.039 597.49 297.315 602.152 292.911 604.633L270.217 617.42C265.951 619.824 260.739 619.824 256.473 617.42L233.779 604.633C229.375 602.152 226.651 597.49 226.651 592.436V567.491C226.651 562.436 229.375 557.774 233.779 555.293L256.473 542.507Z" fill="#F07407" stroke="white" stroke-width="2"/>
<path d="M301.134 620.259C305.4 617.855 310.612 617.855 314.878 620.259L337.573 633.046C341.976 635.527 344.7 640.189 344.7 645.243V670.188C344.7 675.243 341.976 679.905 337.573 682.386L314.878 695.172C310.612 697.576 305.4 697.576 301.134 695.172L278.44 682.386C274.036 679.905 271.312 675.243 271.312 670.188V645.243C271.312 640.189 274.036 635.527 278.44 633.046L301.134 620.259Z" fill="#1F93FF" stroke="white" stroke-width="2"/>
</g>
<defs>
<filter id="filter0_d" x="1.8313" y="2.25366" width="480.337" height="703.721" filterUnits="userSpaceOnUse" color-interpolation-filters="sRGB">
<feFlood flood-opacity="0" result="BackgroundImageFix"/>
<feColorMatrix in="SourceAlpha" type="matrix" values="0 0 0 0 0 0 0 0 0 0 0 0 0 0 0 0 0 0 127 0" result="hardAlpha"/>
<feOffset dy="4"/>
<feGaussianBlur stdDeviation="2"/>
<feComposite in2="hardAlpha" operator="out"/>
<feColorMatrix type="matrix" values="0 0 0 0 0 0 0 0 0 0 0 0 0 0 0 0 0 0 0.15 0"/>
<feBlend mode="normal" in2="BackgroundImageFix" result="effect1_dropShadow"/>
<feBlend mode="normal" in="SourceGraphic" in2="effect1_dropShadow" result="shape"/>
</filter>
</defs>
</svg>
